<svg width="1440" height="592" viewBox="0 0 1440 592" fill="none" xmlns="http://www.w3.org/2000/svg">
<rect width="1440" height="592" fill="black"/>
<rect width="1440" height="592" fill="url(#paint0_radial_90_955)" fill-opacity="0.3"/>
<g clip-path="url(#clip0_90_955)">
<path d="M428.36 358.886C428.492 316.5 428.609 274.113 428.74 231.713C428.74 229.733 428.784 227.622 429.852 225.951C430.758 224.529 432.25 223.634 433.698 222.799C459.288 207.917 484.863 193.051 510.453 178.169C512.164 177.172 513.992 176.146 515.966 176.249C517.516 176.322 518.949 177.084 520.309 177.832C545.446 191.585 570.568 205.322 595.705 219.075C605.576 224.47 615.402 226.581 626.911 225.247C638.156 223.942 648.772 219.001 656.654 210.791L656.741 210.703C659.198 208.123 661.465 205.088 661.933 201.54C662.956 193.637 655.118 187.743 648.245 183.726C605.912 158.948 563.593 134.171 521.26 109.407C520.148 108.748 518.993 108.088 517.706 107.912C515.615 107.648 513.627 108.733 511.799 109.774C466.161 136.047 420.522 162.32 374.884 188.579C373.422 189.415 371.916 190.309 371.024 191.746C370.029 193.344 370 195.353 370 197.244C370 238.09 370 278.937 370 319.784C370 321.382 370 323.053 370.702 324.505C371.638 326.484 373.656 327.686 375.571 328.786C393.177 338.829 410.769 348.857 428.375 358.9L428.36 358.886Z" fill="#ED2224"/>
<path d="M515.82 240.935C535.576 252.004 555.317 263.074 575.072 274.143C581.594 277.794 588.116 281.444 594.623 285.11C606 291.487 614.832 293.804 627.963 291.693C634.398 290.652 640.744 288.643 646.374 285.3C650.614 282.764 661.728 274.729 661.611 269.012C661.611 269.012 662.985 337.539 663 337.597C663.088 342.26 652.325 349.693 649.225 351.716C634.705 361.217 616.748 361.422 600.355 357.478C590.631 355.147 581.667 347.948 573.084 342.949C564.5 337.949 556.603 333.331 548.371 328.537C537.535 322.218 526.714 315.899 515.879 309.58C515.879 309.58 515.805 309.55 515.805 309.536V240.95L515.82 240.935Z" fill="#010101"/>
</g>
<defs>
<radialGradient id="paint0_radial_90_955" cx="0" cy="0" r="1" gradientUnits="userSpaceOnUse" gradientTransform="translate(1676 -136.117) rotate(156.521) scale(1827.28 4444.74)">
<stop stop-color="#8B1417"/>
<stop offset="1" stop-color="#8B1417" stop-opacity="0"/>
</radialGradient>
<clipPath id="clip0_90_955">
<rect width="293" height="252" fill="white" transform="translate(370 107.883)"/>
</clipPath>
</defs>
</svg>
