<svg width="29" height="28" viewBox="0 0 29 28" fill="none" xmlns="http://www.w3.org/2000/svg">
<path d="M22.375 4.375H6.625C6.16087 4.375 5.71575 4.55937 5.38756 4.88756C5.05937 5.21575 4.875 5.66087 4.875 6.125V21.875C4.875 22.3391 5.05937 22.7842 5.38756 23.1124C5.71575 23.4406 6.16087 23.625 6.625 23.625H22.375C22.8391 23.625 23.2842 23.4406 23.6124 23.1124C23.9406 22.7842 24.125 22.3391 24.125 21.875V6.125C24.125 5.66087 23.9406 5.21575 23.6124 4.88756C23.2842 4.55937 22.8391 4.375 22.375 4.375ZM22.375 13.125H15.375V6.125H22.375V13.125ZM13.625 6.125V13.125H6.625V6.125H13.625ZM6.625 14.875H13.625V21.875H6.625V14.875ZM22.375 21.875H15.375V14.875H22.375V21.875Z" fill="#111111"/>
</svg>
