<svg width="28" height="28" viewBox="0 0 28 28" fill="none" xmlns="http://www.w3.org/2000/svg">
<path d="M23.6019 12.9244C23.5688 12.7841 23.5016 12.6542 23.4062 12.5462C23.3108 12.4382 23.1902 12.3555 23.0551 12.3053L16.754 9.94171L18.3574 1.92124C18.3937 1.73489 18.3684 1.54178 18.2854 1.37107C18.2023 1.20035 18.066 1.06128 17.8969 0.974844C17.7279 0.88841 17.5353 0.859301 17.3483 0.891911C17.1612 0.92452 16.9899 1.01708 16.8601 1.15562L4.61007 14.2806C4.51058 14.3855 4.4386 14.5133 4.40058 14.6527C4.36255 14.7922 4.35966 14.9389 4.39216 15.0797C4.42466 15.2205 4.49154 15.3511 4.58682 15.4598C4.6821 15.5685 4.80282 15.6519 4.9382 15.7025L11.2415 18.0661L9.64241 26.0778C9.60611 26.2642 9.63139 26.4573 9.71446 26.628C9.79753 26.7987 9.93387 26.9378 10.1029 27.0242C10.272 27.1106 10.4645 27.1397 10.6516 27.1071C10.8386 27.0745 11.0099 26.982 11.1398 26.8434L23.3898 13.7184C23.4875 13.6136 23.5579 13.4863 23.5949 13.3479C23.6319 13.2094 23.6343 13.064 23.6019 12.9244ZM11.9623 23.4058L13.1074 17.6767C13.1484 17.4735 13.1159 17.2624 13.0158 17.0809C12.9156 16.8994 12.7543 16.7594 12.5605 16.6858L6.78116 14.5147L16.0365 4.59874L14.8924 10.3278C14.8514 10.531 14.8839 10.7421 14.9841 10.9236C15.0842 11.1051 15.2455 11.2451 15.4393 11.3187L21.2143 13.4844L11.9623 23.4058Z" fill="#111111"/>
</svg>
