<svg width="29" height="28" viewBox="0 0 29 28" fill="none" xmlns="http://www.w3.org/2000/svg">
<path d="M25.875 11.375H23.25V6.125H25.875C26.1071 6.125 26.3296 6.03281 26.4937 5.86872C26.6578 5.70462 26.75 5.48206 26.75 5.25C26.75 5.01794 26.6578 4.79538 26.4937 4.63128C26.3296 4.46719 26.1071 4.375 25.875 4.375H23.0127C22.8593 4.10939 22.6388 3.88875 22.3734 3.73518C22.1079 3.58161 21.8067 3.50051 21.5 3.5H19.75C19.4433 3.50051 19.1421 3.58161 18.8766 3.73518C18.6112 3.88875 18.3907 4.10939 18.2373 4.375H16.25C13.2341 4.37818 10.3427 5.57764 8.21018 7.71018C6.07764 9.84271 4.87818 12.7341 4.875 15.75V17.7362C4.60923 17.8897 4.38848 18.1103 4.2349 18.376C4.08133 18.6417 4.00031 18.9431 4 19.25V21C4.00031 21.3069 4.08133 21.6083 4.2349 21.874C4.38848 22.1397 4.60923 22.3603 4.875 22.5138V25.375C4.875 25.6071 4.96719 25.8296 5.13128 25.9937C5.29538 26.1578 5.51794 26.25 5.75 26.25C5.98206 26.25 6.20462 26.1578 6.36872 25.9937C6.53281 25.8296 6.625 25.6071 6.625 25.375V22.75H11.875V25.375C11.875 25.6071 11.9672 25.8296 12.1313 25.9937C12.2954 26.1578 12.5179 26.25 12.75 26.25C12.9821 26.25 13.2046 26.1578 13.3687 25.9937C13.5328 25.8296 13.625 25.6071 13.625 25.375V22.5138C13.8908 22.3603 14.1115 22.1397 14.2651 21.874C14.4187 21.6083 14.4997 21.3069 14.5 21V19.25C14.4997 18.9431 14.4187 18.6417 14.2651 18.376C14.1115 18.1103 13.8908 17.8897 13.625 17.7362V15.75C13.625 15.0538 13.9016 14.3861 14.3938 13.8938C14.8861 13.4016 15.5538 13.125 16.25 13.125H18.2373C18.3907 13.3906 18.6112 13.6113 18.8766 13.7648C19.1421 13.9184 19.4433 13.9995 19.75 14H21.5C21.8067 13.9995 22.1079 13.9184 22.3734 13.7648C22.6388 13.6113 22.8593 13.3906 23.0127 13.125H25.875C26.1071 13.125 26.3296 13.0328 26.4937 12.8687C26.6578 12.7046 26.75 12.4821 26.75 12.25C26.75 12.0179 26.6578 11.7954 26.4937 11.6313C26.3296 11.4672 26.1071 11.375 25.875 11.375ZM12.75 19.25V21H5.75V19.25H12.75ZM11.875 15.75V17.5H6.625V15.75C6.62789 13.1982 7.64288 10.7517 9.44729 8.94729C11.2517 7.14288 13.6982 6.12789 16.25 6.125H18V11.375H16.25C15.0897 11.375 13.9769 11.8359 13.1564 12.6564C12.3359 13.4769 11.875 14.5897 11.875 15.75ZM19.75 12.25V5.25H21.5V12.2281C21.5 12.2358 21.5 12.2423 21.5 12.25H19.75Z" fill="#111111"/>
</svg>
