<svg width="29" height="28" viewBox="0 0 29 28" fill="none" xmlns="http://www.w3.org/2000/svg">
<path d="M25 5.25H4C3.76794 5.25 3.54538 5.34219 3.38128 5.50628C3.21719 5.67038 3.125 5.89294 3.125 6.125V21.875C3.125 22.1071 3.21719 22.3296 3.38128 22.4937C3.54538 22.6578 3.76794 22.75 4 22.75H25C25.2321 22.75 25.4546 22.6578 25.6187 22.4937C25.7828 22.3296 25.875 22.1071 25.875 21.875V6.125C25.875 5.89294 25.7828 5.67038 25.6187 5.50628C25.4546 5.34219 25.2321 5.25 25 5.25ZM10.125 15.75V12.25H18.875V15.75H10.125ZM4.875 15.75V12.25H8.375V15.75H4.875ZM20.625 12.25H24.125V15.75H20.625V12.25ZM24.125 10.5H15.375V7H24.125V10.5ZM13.625 7V10.5H4.875V7H13.625ZM4.875 17.5H13.625V21H4.875V17.5ZM15.375 21V17.5H24.125V21H15.375Z" fill="#111111"/>
</svg>
